<svg xmlns="http://www.w3.org/2000/svg" xmlns:xlink="http://www.w3.org/1999/xlink" xml:space="preserve" version="1.1" style="shape-rendering:geometricPrecision;text-rendering:geometricPrecision;image-rendering:optimizeQuality;" viewBox="0 0 344.66 430.82500000000005" x="0px" y="0px" fill-rule="evenodd" clip-rule="evenodd"><defs><style type="text/css">
   
    .fil0 {fill:black}
    .fil1 {fill:black;fill-rule:nonzero}
   
  </style></defs><g><path class="fil0" d="M79.24 143.21l28.19 -32.55c4.19,-4.83 4.46,-11.71 0.68,-16.87l-40.14 -54.71c-3.43,-4.69 -9.15,-6.63 -14.73,-4.99 -40.01,11.73 -65.42,46.71 -47.27,96.4 33.17,90.84 117.34,175.02 208.2,208.2 49.7,18.14 84.67,-7.26 96.4,-47.27 1.64,-5.58 -0.3,-11.3 -4.99,-14.73l-54.71 -40.14c-5.16,-3.78 -12.04,-3.51 -16.87,0.68l-32.55 28.19c-46.83,-19.23 -102.97,-75.37 -122.2,-122.2z"/><path class="fil1" d="M316.28 164.31c0,7.82 6.36,14.19 14.19,14.19 7.82,0 14.19,-6.37 14.19,-14.19 0,-45.36 -18.39,-86.45 -48.12,-116.19 -29.74,-29.73 -70.83,-48.12 -116.19,-48.12 -7.82,0 -14.19,6.37 -14.19,14.19 0,7.83 6.37,14.19 14.19,14.19 37.52,0 71.53,15.22 96.12,39.81 24.59,24.59 39.81,58.6 39.81,96.12z"/><path class="fil1" d="M261.07 164.3c0,7.82 6.36,14.19 14.19,14.19 7.82,0 14.19,-6.37 14.19,-14.19 0,-30.1 -12.21,-57.39 -31.96,-77.13 -19.74,-19.75 -47.03,-31.96 -77.13,-31.96 -7.82,0 -14.19,6.37 -14.19,14.19 0,7.83 6.37,14.19 14.19,14.19 22.27,0 42.46,9.04 57.06,23.65 14.61,14.6 23.65,34.79 23.65,57.06z"/><path class="fil1" d="M205.9 164.26c-0.01,7.81 6.31,14.18 14.12,14.19 7.8,0.02 14.17,-6.3 14.19,-14.11 0.01,-14.91 -6.02,-28.41 -15.75,-38.14 -9.73,-9.73 -23.23,-15.76 -38.14,-15.75 -7.81,0.02 -14.13,6.39 -14.11,14.19 0.01,7.81 6.38,14.13 14.19,14.12 6.98,-0.01 13.36,2.88 17.99,7.51 4.63,4.63 7.52,11.01 7.51,17.99z"/></g><text x="0" y="359.66" fill="#000000" font-size="5px" font-weight="bold" font-family="'Helvetica Neue', Helvetica, Arial-Unicode, Arial, Sans-serif">Created by Vincencio</text><text x="0" y="364.66" fill="#000000" font-size="5px" font-weight="bold" font-family="'Helvetica Neue', Helvetica, Arial-Unicode, Arial, Sans-serif">from the Noun Project</text></svg>