<svg xmlns="http://www.w3.org/2000/svg" xmlns:xlink="http://www.w3.org/1999/xlink" version="1.1" x="0px" y="0px" viewBox="0 0 100 125" enable-background="new 0 0 100 100" xml:space="preserve"><path d="M89,17H11c-3.3,0-6,2.7-6,6v54c0,3.3,2.7,6,6,6h78c3.3,0,6-2.7,6-6V23C95,19.7,92.3,17,89,17z M50,55.2L15.1,23h69.7  L50,55.2z M52,60.9l8.8-8.1L85,77H15l24.2-24.2l8.8,8.1C49.1,62,50.9,62,52,60.9z M89,73L65,49l24-22.2V73z M35,49L11,73V26.8L35,49  z"/><text x="0" y="115" fill="#000000" font-size="5px" font-weight="bold" font-family="'Helvetica Neue', Helvetica, Arial-Unicode, Arial, Sans-serif">Created by Alex Podolsky</text><text x="0" y="120" fill="#000000" font-size="5px" font-weight="bold" font-family="'Helvetica Neue', Helvetica, Arial-Unicode, Arial, Sans-serif">from the Noun Project</text></svg>