<svg xmlns="http://www.w3.org/2000/svg" xmlns:xlink="http://www.w3.org/1999/xlink" version="1.1" x="0px" y="0px" viewBox="0 0 30 37.5" style="enable-background:new 0 0 30 30;" xml:space="preserve"><path d="M15,2C7.8,2,2,7.8,2,15c0,7.2,5.8,13,13,13s13-5.8,13-13C28,7.8,22.2,2,15,2z M4,15c0-1.6,0.4-3.2,1-4.6  c0.9,0.3,1.8,0.6,2.8,0.8c-0.2,1.2-0.3,2.5-0.3,3.8c0,1.3,0.1,2.6,0.3,3.8c-1,0.2-1.9,0.5-2.8,0.8C4.4,18.2,4,16.6,4,15z M9.5,15  c0-1.2,0.1-2.3,0.3-3.4c1.4,0.2,2.8,0.3,4.2,0.4v6.1c-1.4,0-2.8,0.2-4.2,0.4C9.6,17.3,9.5,16.2,9.5,15z M19.8,9.6  c-1.2,0.2-2.5,0.3-3.8,0.3V4.2C17.6,4.8,19,6.9,19.8,9.6z M14,4.2v5.7c-1.3,0-2.5-0.1-3.8-0.3C11,6.9,12.4,4.8,14,4.2z M14,20.1v5.7  c-1.6-0.6-3-2.7-3.8-5.4C11.5,20.2,12.7,20.1,14,20.1z M16,25.8v-5.7c1.3,0,2.5,0.1,3.8,0.3C19,23.1,17.6,25.2,16,25.8z M16,18.1V12  c1.4,0,2.8-0.2,4.2-0.4c0.2,1.1,0.3,2.2,0.3,3.4c0,1.2-0.1,2.3-0.3,3.4C18.8,18.2,17.4,18.1,16,18.1z M22.2,11.2  c1-0.2,1.9-0.5,2.8-0.8c0.6,1.4,1,2.9,1,4.6c0,1.6-0.4,3.2-1,4.6c-0.9-0.3-1.8-0.6-2.8-0.8c0.2-1.2,0.3-2.5,0.3-3.8  C22.5,13.7,22.4,12.4,22.2,11.2z M24,8.6c-0.7,0.2-1.5,0.4-2.2,0.6c-0.4-1.5-1-2.9-1.8-4C21.6,6,22.9,7.2,24,8.6z M10,5.2  c-0.7,1.1-1.3,2.5-1.8,4C7.5,9.1,6.8,8.9,6,8.6C7.1,7.2,8.4,6,10,5.2z M6,21.4c0.7-0.2,1.5-0.4,2.2-0.6c0.4,1.5,1,2.9,1.8,4  C8.4,24,7.1,22.8,6,21.4z M20,24.8c0.7-1.1,1.3-2.5,1.8-4c0.8,0.2,1.5,0.4,2.2,0.6C22.9,22.8,21.6,24,20,24.8z"/><text x="0" y="45" fill="#000000" font-size="5px" font-weight="bold" font-family="'Helvetica Neue', Helvetica, Arial-Unicode, Arial, Sans-serif">Created by yoyo</text><text x="0" y="50" fill="#000000" font-size="5px" font-weight="bold" font-family="'Helvetica Neue', Helvetica, Arial-Unicode, Arial, Sans-serif">from the Noun Project</text></svg>